# xmcd CD database file
#
# Track frame offsets:
#	150
#	16262
#	42126
#	54769
#	63075
#	77108
#	91708
#	109820
#	123262
#	143029
#
# Disc length: 2122 seconds
#
# Revision: 0
# Processed by: cddbd v1.5.1PL2 Copyright (c) Steve Scherf et al.
# Submitted via: CDex 1.51
#
DISCID=6e08480a
DTITLE=Speedbuggy USA - The City That God Forgot
DYEAR=2006
DGENRE=Traditional
TTITLE0=Engine #9
TTITLE1=Close Down This Honky Tonk
TTITLE2=Club 190
TTITLE3=Rusted Cars
TTITLE4=Hurricane
TTITLE5=Shadow on the Grave
TTITLE6=Bitter Man
TTITLE7=Piece of Your Heart
TTITLE8=Gatemouth to Highway
TTITLE9=It's All Washed Away
EXTD=YEAR: 2006
EXTT0=
EXTT1=
EXTT2=
EXTT3=
EXTT4=
EXTT5=
EXTT6=
EXTT7=
EXTT8=
EXTT9=
PLAYORDER=
